<svg version="1.1" id="Layer_1" xmlns="http://www.w3.org/2000/svg" xmlns:xlink="http://www.w3.org/1999/xlink" x="0px" y="0px"
	 width="100%" viewBox="0 0 364 255" enable-background="new 0 0 364 255" xml:space="preserve">
<path fill="#FDFCFD" opacity="1.000000" stroke="none" 
	d="
M230.000000,256.000000 
	C153.333359,256.000000 77.166710,256.000000 1.000051,256.000000 
	C1.000034,171.000046 1.000034,86.000099 1.000017,1.000108 
	C122.333252,1.000072 243.666504,1.000072 364.999817,1.000036 
	C364.999878,85.999886 364.999878,170.999771 364.999939,255.999832 
	C320.166656,256.000000 275.333344,256.000000 230.000000,256.000000 
M343.448181,244.014359 
	C347.010223,244.014359 350.572235,244.014359 355.519104,244.014359 
	C319.121643,207.235977 283.742706,171.486740 248.492142,135.867264 
	C253.344696,135.867264 258.686005,136.135208 263.979156,135.747009 
	C266.394501,135.569885 269.233948,134.683868 270.997009,133.121704 
	C286.331024,119.535187 301.536804,105.800285 316.560730,91.872261 
	C318.332703,90.229546 319.673401,87.167603 319.700745,84.746490 
	C319.941589,63.422997 319.839539,42.095638 319.838928,20.769421 
	C319.838898,19.174242 319.838898,17.579065 319.838898,15.965910 
	C270.918793,15.965910 222.675217,15.965910 174.393585,15.965910 
	C174.393585,29.939310 174.393585,43.626503 174.393585,57.672279 
	C209.063477,57.672279 243.336166,57.672279 277.440491,57.672279 
	C279.213104,65.395821 278.025238,71.322090 271.076538,75.998444 
	C264.479980,80.437820 258.858948,86.302147 252.520493,91.163780 
	C250.490021,92.721153 247.547119,93.842216 245.009262,93.866531 
	C223.185226,94.075554 201.358337,93.987450 179.532303,93.988022 
	C177.776550,93.988068 176.020798,93.988022 173.694901,93.988022 
	C173.694901,102.345924 173.450424,110.003014 173.834167,117.628471 
	C173.959930,120.127594 175.090271,123.167221 176.819824,124.907707 
	C215.454636,163.786926 254.212006,202.544708 293.082062,241.188751 
	C294.710327,242.807541 297.637421,243.857239 299.981506,243.897812 
	C314.139160,244.142914 328.303253,244.016525 343.448181,244.014359 
M94.499733,57.502560 
	C102.077652,57.502560 109.655579,57.502560 117.415131,57.502560 
	C117.415131,89.021385 117.456573,119.671989 117.303772,150.321625 
	C117.295326,152.014664 116.006317,154.016708 114.747223,155.333649 
	C109.221550,161.113129 103.441422,166.648224 97.842316,172.358948 
	C92.520454,177.786911 87.308853,183.322983 80.941345,189.967026 
	C59.445480,168.409912 38.750362,147.655823 17.541121,126.386139 
	C17.541121,144.820877 17.445948,162.963089 17.678026,181.101105 
	C17.703171,183.066391 19.230263,185.395599 20.721825,186.900879 
	C39.838882,206.193649 59.074062,225.369400 78.290176,244.563934 
	C79.304306,245.576950 80.415726,246.492554 81.460457,247.434219 
	C82.144684,246.930756 82.590714,246.683685 82.936363,246.336639 
	C107.629814,221.544449 132.348297,196.776901 156.915115,171.859802 
	C158.313538,170.441437 159.098511,167.795090 159.103638,165.717606 
	C159.223343,117.226517 159.198105,68.735062 159.184525,20.243675 
	C159.184113,18.805309 159.021042,17.366989 158.939514,16.022594 
	C111.634201,16.022594 64.739357,16.022594 17.793407,16.022594 
	C17.793407,29.939219 17.793407,43.511478 17.793407,57.502495 
	C43.243774,57.502495 68.371742,57.502495 94.499733,57.502560 
z"/>
<path fill="#030303" opacity="1.000000" stroke="none" 
	d="
M342.956665,244.014359 
	C328.303253,244.016525 314.139160,244.142914 299.981506,243.897812 
	C297.637421,243.857239 294.710327,242.807541 293.082062,241.188751 
	C254.212006,202.544708 215.454636,163.786926 176.819824,124.907707 
	C175.090271,123.167221 173.959930,120.127594 173.834167,117.628471 
	C173.450424,110.003014 173.694901,102.345924 173.694901,93.988022 
	C176.020798,93.988022 177.776550,93.988068 179.532303,93.988022 
	C201.358337,93.987450 223.185226,94.075554 245.009262,93.866531 
	C247.547119,93.842216 250.490021,92.721153 252.520493,91.163780 
	C258.858948,86.302147 264.479980,80.437820 271.076538,75.998444 
	C278.025238,71.322090 279.213104,65.395821 277.440491,57.672279 
	C243.336166,57.672279 209.063477,57.672279 174.393585,57.672279 
	C174.393585,43.626503 174.393585,29.939310 174.393585,15.965910 
	C222.675217,15.965910 270.918793,15.965910 319.838898,15.965910 
	C319.838898,17.579065 319.838898,19.174242 319.838928,20.769421 
	C319.839539,42.095638 319.941589,63.422997 319.700745,84.746490 
	C319.673401,87.167603 318.332703,90.229546 316.560730,91.872261 
	C301.536804,105.800285 286.331024,119.535187 270.997009,133.121704 
	C269.233948,134.683868 266.394501,135.569885 263.979156,135.747009 
	C258.686005,136.135208 253.344696,135.867264 248.492142,135.867264 
	C283.742706,171.486740 319.121643,207.235977 355.519104,244.014359 
	C350.572235,244.014359 347.010223,244.014359 342.956665,244.014359 
z"/>
<path fill="#030303" opacity="1.000000" stroke="none" 
	d="
M93.999725,57.502525 
	C68.371742,57.502495 43.243774,57.502495 17.793407,57.502495 
	C17.793407,43.511478 17.793407,29.939219 17.793407,16.022594 
	C64.739357,16.022594 111.634201,16.022594 158.939514,16.022594 
	C159.021042,17.366989 159.184113,18.805309 159.184525,20.243675 
	C159.198105,68.735062 159.223343,117.226517 159.103638,165.717606 
	C159.098511,167.795090 158.313538,170.441437 156.915115,171.859802 
	C132.348297,196.776901 107.629814,221.544449 82.936363,246.336639 
	C82.590714,246.683685 82.144684,246.930756 81.460457,247.434219 
	C80.415726,246.492554 79.304306,245.576950 78.290176,244.563934 
	C59.074062,225.369400 39.838882,206.193649 20.721825,186.900879 
	C19.230263,185.395599 17.703171,183.066391 17.678026,181.101105 
	C17.445948,162.963089 17.541121,144.820877 17.541121,126.386139 
	C38.750362,147.655823 59.445480,168.409912 80.941345,189.967026 
	C87.308853,183.322983 92.520454,177.786911 97.842316,172.358948 
	C103.441422,166.648224 109.221550,161.113129 114.747223,155.333649 
	C116.006317,154.016708 117.295326,152.014664 117.303772,150.321625 
	C117.456573,119.671989 117.415131,89.021385 117.415131,57.502560 
	C109.655579,57.502560 102.077652,57.502560 93.999725,57.502525 
z"/>
</svg>