<!DOCTYPE svg PUBLIC "-//W3C//DTD SVG 1.1//EN" "http://www.w3.org/Graphics/SVG/1.1/DTD/svg11.dtd">
<svg xmlns="http://www.w3.org/2000/svg" viewBox="0 0 364 255">
<path fill="#fcfcfc" stroke="#fcfcfc" d="M15.447 15.278c-.27.703-.368 10.266-.219 21.25L15.5 56.5l50 .5 50 .5.26 46.921.26 46.922-16.26 16.404c-8.943 9.022-16.995 16.808-17.893 17.301-1.306.717-7.908-5.317-32.911-30.075C31.754 137.938 17.301 124 16.84 124c-.462 0-.846 12.037-.854 26.75-.007 14.713-.294 27.797-.637 29.077-.541 2.023 3.607 6.565 31.744 34.75C64.894 232.41 79.925 247 80.495 247c.57 0 18.467-17.45 39.771-38.778L159 169.443V14H87.469c-57.145 0-71.63.257-72.022 1.278M172 35.494V57h104V68.809l-13.552 11.345L248.897 91.5l-38.199.5-38.198.5-.279 14.468-.279 14.468 61.276 61.282L294.494 244h29.694c16.332 0 29.938-.394 30.236-.876.297-.482-23.606-24.782-53.118-54L247.646 136h19.397l25.729-23.208c14.15-12.765 26.062-23.677 26.47-24.25.408-.573.633-17.467.5-37.542l-.242-36.5-73.75-.256-73.75-.257v21.507" fill-rule="evenodd" style="--darkreader-inline-fill: var(--darkreader-background-fcfcfc, #1a1c1d); --darkreader-inline-stroke: var(--darkreader-text-fcfcfc, #e6e4e1);" data-darkreader-inline-fill="" data-darkreader-inline-stroke=""/>
<path fill="#eaeaea" stroke="#eaeaea" d="M16.449 15.271c-.271.707-.37 10.273-.221 21.257L16.5 56.5l49.75.259 49.75.26v94.461l-17.742 17.762-17.742 17.763-31.219-31.208c-17.171-17.164-31.406-31.003-31.635-30.752-.228.25-.722 13.28-1.099 28.955l-.684 28.5 32.322 32.256 32.322 32.255 39.211-39.257 39.211-39.258-.222-76.998L158.5 14.5l-70.779-.257c-56.912-.206-70.875-.005-71.272 1.028M173 35.5V57h104v11.59l-14.58 12.205L247.84 93h-74.541l-.649 9.154c-.358 5.034-.65 11.223-.65 13.753v4.599l61.253 61.247L294.506 243H354.493L300.5 189l-53.993-54 10.496-.026 10.497-.027 25.739-23.223L318.977 88.5l.012-37.25L319 14H173v21.5" fill-rule="evenodd" style="--darkreader-inline-fill: var(--darkreader-background-eaeaea, #242728); --darkreader-inline-stroke: var(--darkreader-text-eaeaea, #dbd8d3);" data-darkreader-inline-fill="" data-darkreader-inline-stroke=""/>
<path fill="#a0a0a0" stroke="#a0a0a0" d="M17 35.491v20.49l49.75.26 49.75.259.26 47.427.26 47.427-17.724 17.823C89.548 178.98 81.109 187 80.542 187c-.567 0-15.095-14.06-32.286-31.244L17 124.512v59l31.256 31.244c17.191 17.184 31.703 31.265 32.25 31.291.547.026 18.195-17.412 39.219-38.75L157.95 168.5l.025-76.75L158 15H17v20.491m156 0v20.491l51.75.259 51.75.259v12.956l-14 11.766-14 11.766-37.75.006L173 93v28.506l60.753 60.747L294.506 243h59.604l-54.192-53.75-54.192-53.75 10.893-.5 10.892-.5 25.745-23.332L319 87.836V15H173v20.491" fill-rule="evenodd" style="--darkreader-inline-fill: var(--darkreader-background-a0a0a0, #4e5457); --darkreader-inline-stroke: var(--darkreader-text-a0a0a0, #aca59a);" data-darkreader-inline-fill="" data-darkreader-inline-stroke=""/>
<path fill="#040404" stroke="#040404" d="M17 35.5V56h100v95.48l-18.242 18.262-18.242 18.262-31.104-31.092-31.103-31.092-.655 7.741c-.36 4.257-.654 17.013-.654 28.346v20.605l31.755 31.743 31.756 31.744 38.744-38.754L158 168.491V15H17v20.5m157-.009v20.491l51.75.259 51.75.259.301 5.801c.349 6.716 1.467 5.342-17.043 20.96L249.215 93h-74.953l-.62 3.75c-.341 2.063-.625 8.251-.631 13.753L173 120.506l61.253 61.247L295.506 243H353.493l-53.746-53.753c-29.561-29.565-53.747-54.09-53.747-54.5 0-.411 4.838-.762 10.75-.78l10.75-.032 16-14.501c8.8-7.975 20.143-18.198 25.207-22.717l9.207-8.217.043-36.75L318 15H174v20.491" fill-rule="evenodd" style="--darkreader-inline-fill: var(--darkreader-background-040404, #030303); --darkreader-inline-stroke: var(--darkreader-text-040404, #e5e3e0);" data-darkreader-inline-fill="" data-darkreader-inline-stroke=""/>
</svg>